<svg width="545" height="734" viewBox="0 0 545 734" fill="none" xmlns="http://www.w3.org/2000/svg">
<path d="M411.678 0.416205C444.475 0.416205 467.386 -2.84351 488.5 8.88214C531.717 32.8821 567.384 138.36 510.165 195.028C521.415 219.941 539.495 245.467 543.456 271.489C554.903 346.701 501.593 403.951 420.601 406.347C357.316 408.22 293.938 406.721 230.615 407.68C212.008 407.961 192.854 409.268 174.983 414.001C122.42 427.921 90.5778 478.077 94.9526 536.753C99.3224 595.365 136.741 638.337 192.972 645.123C219.018 648.266 245.759 645.659 273.699 645.659C273.699 675.996 273.699 702.861 273.699 731.897C215.74 734.731 158.312 736.434 104.816 708.318C21.7521 664.662 -13.0051 600.735 4.35449 479.835C17.1207 390.925 100.476 327.4 196.869 323.4C262.444 320.678 328.202 322.42 393.878 322.035C432.646 321.808 453.581 307.138 453.501 280.609C453.42 253.363 433.761 239.864 395.208 239.585C365.813 239.373 329.519 239.585 299.02 239.585C299.02 236.885 299.02 241.931 299.02 239.585C299.02 216.008 299.465 188.319 299.465 161.265C330.737 161.265 361.809 161.474 392.874 161.145C402.973 161.038 413.216 160.359 423.113 158.472C440.542 155.148 450.361 144 451.617 126.181C452.928 107.572 444.899 93.4896 427.096 88.2186C414.647 84.5327 401.002 83.9064 387.864 83.7034C351.291 83.1387 314.703 83.5073 277.121 83.5073C277.121 55.1217 277.121 28.154 277.121 0.382139C321.974 0.382139 365.717 0.38214 411.678 0.416205Z" fill="#FAFAFA"/>
</svg>
